# AVP.Alien.vs.Predator.2004.UNRATED.1080p.BluRay.REMUX.MPEG-2.DTS-HD.MA.5.1-FGT

```text
General
Unique ID                                : 194720938456209384619384729103847291039 (0x926FA793C29E40BFA90F47E8A08139C7)
Complete name                            : AVP.Alien.vs.Predator.2004.UNRATED.1080p.BluRay.REMUX.MPEG-2.DTS-HD.MA.5.1-FGT.mkv
Format                                   : Matroska
Format version                           : Version 4
File size                                : 24.3 GiB
Duration                                 : 1 h 48 min
Overall bit rate mode                    : Variable
Overall bit rate                         : 32.1 Mbps
Movie name                               : AVP: Alien vs. Predator (2004) - Unrated Extended Cut
Encoded date                             : UTC 2026-07-16 13:42:01
Writing application                      : mkvmerge v82.0.0 ('The Catalyst') 64-bit
Writing library                          : libebml v1.4.5 + libmatroska v1.7.1

Video
ID                                       : 1
Format                                   : MPEG Video
Format version                           : Version 2
Format profile                           : Main@High
Format settings, BVOP                    : Yes
Format settings, Matrix                  : Custom
Format settings, GOP                     : M=3, N=15
Codec ID                                 : V_MPEG2
Codec ID/Info                            : MPEG-1 or MPEG-2 video
Duration                                 : 1 h 48 min
Bit rate mode                            : Variable
Bit rate                                 : 27.1 Mbps
Maximum bit rate                         : 38.0 Mbps
Width                                    : 1 920 pixels
Height                                   : 1 080 pixels
Display aspect ratio                     : 16:9
Frame rate mode                          : Constant
Frame rate                               : 23.976 (24000/1001) FPS
Color space                              : YUV
Chroma subsampling                       : 4:2:0
Bit depth                                : 8 bits
Scan type                                : Progressive
Compression mode                         : Lossy
Bits/(Pixel*Frame)                       : 0.546
Stream size                              : 20.6 GiB (85%)
Title                                    : MPEG-2 Video / 1080p / 23.976 fps
Language                                 : English
Default                                  : Yes
Forced                                   : No
Color primaries                          : BT.709
Transfer characteristics                 : BT.709
Matrix coefficients                      : BT.709

Audio #1
ID                                       : 2
Format                                   : DTS LBR / DTS
Format/Info                              : Digital Theater Systems
Commercial name                          : DTS-HD Master Audio
Codec ID                                 : A_DTS
Duration                                 : 1 h 48 min
Bit rate mode                            : Variable / Constant
Bit rate                                 : 3 831 kbps / 1 509 kbps
Channel(s)                               : 6 channels
Channel layout                           : C L R Ls Rs LFE
Sampling rate                            : 48.0 kHz
Frame rate                               : 93.750 FPS (512 SPF)
Bit depth                                : 24 bits
Compression mode                         : Lossless / Lossy
Stream size                              : 2.91 GiB (12%)
Title                                    : DTS-HD Master Audio 5.1 (Core: DTS 5.1 ES)
Language                                 : English
Default                                  : Yes
Forced                                   : No

Audio #2
ID                                       : 3
Format                                   : AC-3
Format/Info                              : Audio Coding 3
Commercial name                          : Dolby Digital
Codec ID                                 : A_AC3
Duration                                 : 1 h 48 min
Bit rate mode                            : Constant
Bit rate                                 : 448 kbps
Channel(s)                               : 6 channels
Channel layout                           : L C R Ls Rs LFE
Sampling rate                            : 48.0 kHz
Frame rate                               : 31.250 FPS (1536 SPF)
Compression mode                         : Lossy
Stream size                              : 348 MiB (1%)
Title                                    : Dolby Digital 5.1
Language                                 : French
Default                                  : No
Forced                                   : No

Audio #3
ID                                       : 4
Format                                   : AC-3
Format/Info                              : Audio Coding 3
Commercial name                          : Dolby Digital
Codec ID                                 : A_AC3
Duration                                 : 1 h 48 min
Bit rate mode                            : Constant
Bit rate                                 : 448 kbps
Channel(s)                               : 6 channels
Channel layout                           : L C R Ls Rs LFE
Sampling rate                            : 48.0 kHz
Frame rate                               : 31.250 FPS (1536 SPF)
Compression mode                         : Lossy
Stream size                              : 348 MiB (1%)
Title                                    : Dolby Digital 5.1
Language                                 : Spanish
Default                                  : No
Forced                                   : No

Subtitle #1
ID                                       : 5
Format                                   : PGS
Codec ID                                 : S_HDMV/PGS
Codec ID/Info                            : Picture-based subtitle format used on BDs/HD-DVDs
Duration                                 : 1 h 47 min
Bit rate                                 : 23.1 kbps
Frame rate                               : 0.325 FPS
Count of elements                        : 2104
Stream size                              : 17.8 MiB (0%)
Title                                    : English PGS
Language                                 : English
Default                                  : Yes
Forced                                   : No

Subtitle #2
ID                                       : 6
Format                                   : PGS
Codec ID                                 : S_HDMV/PGS
Codec ID/Info                            : Picture-based subtitle format used on BDs/HD-DVDs
Duration                                 : 1 h 47 min
Bit rate                                 : 18.5 kbps
Frame rate                               : 0.285 FPS
Count of elements                        : 1850
Stream size                              : 14.3 MiB (0%)
Title                                    : Spanish PGS
Language                                 : Spanish
Default                                  : No
Forced                                   : No

Subtitle #3
ID                                       : 7
Format                                   : PGS
Codec ID                                 : S_HDMV/PGS
Codec ID/Info                            : Picture-based subtitle format used on BDs/HD-DVDs
Duration                                 : 1 h 47 min
Bit rate                                 : 19.1 kbps
Frame rate                               : 0.294 FPS
Count of elements                        : 1910
Stream size                              : 14.7 MiB (0%)
Title                                    : French PGS
Language                                 : French
Default                                  : No
Forced                                   : No

Menu
00:00:00.000                             : en:Antarctica 1904 / Weyland's Expedition / The Pyramid
00:07:15.340                             : en:The Team Assembles
00:15:42.120                             : en:Arriving at Bouvetøya Island
00:22:11.890                             : en:Descent into the Shaft
00:30:05.450                             : en:The Chamber of Skulls / Sacrificial Ritual
00:39:18.010                             : en:The Queen Awakens / Eggs and Facehuggers
00:48:22.670                             : en:First Contact / The Predators Arrive
00:57:33.210                             : en:Claustrophobic Labyrinth / Shifted Walls
01:06:14.900                             : en:Alien vs. Predator / Celtic Fight
01:15:55.130                             : en:The Unholy Alliance / Lex and Scar
01:25:39.420                             : en:Setting the Bomb
01:34:02.800                             : en:Escape to the Surface / Epic Finale
01:42:15.000                             : en:End Credits
```
